<svg xmlns="http://www.w3.org/2000/svg" xmlns:xlink="http://www.w3.org/1999/xlink" width="500" zoomAndPan="magnify" viewBox="0 0 375 374.999991" height="500" preserveAspectRatio="xMidYMid meet" version="1.2"><defs><clipPath id="9865b65878"><path d="M 45.1875 147 L 82 147 L 82 194 L 45.1875 194 Z M 45.1875 147 "/></clipPath><clipPath id="2747354c6e"><path d="M 50 145.292969 L 92 145.292969 L 92 186 L 50 186 Z M 50 145.292969 "/></clipPath><clipPath id="92eebdff84"><path d="M 55.347656 204 L 61 204 L 61 209 L 55.347656 209 Z M 55.347656 204 "/></clipPath><clipPath id="b634822107"><path d="M 55.347656 183 L 82 183 L 82 209.847656 L 55.347656 209.847656 Z M 55.347656 183 "/></clipPath><clipPath id="886ea35410"><path d="M 305.5625 154 L 329.5625 154 L 329.5625 179 L 305.5625 179 Z M 305.5625 154 "/></clipPath><clipPath id="b2774b7979"><path d="M 305.5625 155 L 317 155 L 317 165 L 305.5625 165 Z M 305.5625 155 "/></clipPath><clipPath id="dba26f7513"><path d="M 89 125 L 111.558594 125 L 111.558594 148 L 89 148 Z M 89 125 "/></clipPath><clipPath id="d8a68b32c1"><path d="M 87.558594 115.214844 L 100 115.214844 L 100 127 L 87.558594 127 Z M 87.558594 115.214844 "/></clipPath><clipPath id="b64eec9326"><path d="M 104 120 L 111.558594 120 L 111.558594 128 L 104 128 Z M 104 120 "/></clipPath></defs><g id="5ed881354c"><path style="fill:none;stroke-width:1;stroke-linecap:round;stroke-linejoin:miter;stroke:#ffffff;stroke-opacity:1;stroke-miterlimit:4;" d="M 0.500011 0.498492 L 120.104186 0.498492 " transform="matrix(0,0.75,-0.75,0,125.389494,142.277335)"/><path style="fill:none;stroke-width:1;stroke-linecap:butt;stroke-linejoin:miter;stroke:#0767af;stroke-opacity:1;stroke-miterlimit:4;" d="M 0.00139198 0.501263 L 128.517025 0.501263 " transform="matrix(0,0.75,-0.75,0,130.641572,126.131769)"/><path style=" stroke:none;fill-rule:nonzero;fill:#2885bf;fill-opacity:1;" d="M 59.078125 140.671875 C 46.289062 134.859375 33.050781 128.84375 25.109375 146.351562 C 16.902344 164.441406 34.683594 183.109375 34.734375 183.164062 L 33.910156 183.941406 L 34.734375 183.164062 C 34.960938 183.402344 35.0625 183.714844 35.039062 184.019531 C 35.058594 185.273438 35.0625 186.625 35.066406 188.035156 C 35.109375 201.324219 35.167969 220.328125 48.574219 225.511719 C 57.816406 229.085938 57.207031 224.082031 57.203125 224.066406 L 58.328125 223.953125 L 57.203125 224.070312 C 57.195312 224.023438 57.195312 223.980469 57.195312 223.9375 C 57.199219 209.011719 59.207031 199.433594 61.78125 195.1875 C 62.972656 193.222656 64.359375 192.25 65.824219 192.257812 C 67.289062 192.261719 68.671875 193.25 69.863281 195.207031 C 72.460938 199.488281 74.496094 209.113281 74.496094 223.953125 C 74.496094 224.015625 74.492188 224.074219 74.484375 224.132812 C 74.449219 224.699219 74.480469 228.855469 83.117188 225.511719 C 96.523438 220.328125 96.582031 201.324219 96.625 188.035156 C 96.628906 186.585938 96.632812 185.203125 96.652344 183.921875 L 97.78125 183.941406 L 96.648438 183.921875 C 96.652344 183.601562 96.792969 183.316406 97.007812 183.113281 C 98.019531 182.03125 114.554688 163.917969 106.582031 146.351562 C 98.640625 128.84375 85.402344 134.859375 72.613281 140.671875 C 71.355469 141.242188 70.101562 141.8125 68.839844 142.367188 C 71.300781 143.265625 73.6875 143.933594 75.945312 144.1875 C 78.859375 144.515625 81.5625 144.144531 83.949219 142.644531 C 84.476562 142.3125 85.171875 142.46875 85.503906 143 C 85.835938 143.527344 85.679688 144.222656 85.152344 144.554688 C 82.28125 146.363281 79.09375 146.820312 75.699219 146.4375 C 70.269531 145.828125 63.90625 142.863281 59.078125 140.671875 Z M 60.007812 138.609375 C 61.992188 139.511719 63.96875 140.410156 65.847656 141.191406 C 67.726562 140.410156 69.699219 139.511719 71.683594 138.609375 C 85.484375 132.339844 99.765625 125.847656 108.644531 145.421875 C 116.832031 163.46875 101.273438 181.757812 98.902344 184.390625 C 98.890625 185.546875 98.886719 186.765625 98.882812 188.035156 C 98.839844 201.960938 98.777344 221.878906 83.929688 227.621094 C 72.011719 232.230469 72.164062 224.894531 72.230469 223.9375 C 72.230469 209.539062 70.34375 200.34375 67.933594 196.375 C 67.179688 195.136719 66.457031 194.515625 65.816406 194.511719 C 65.175781 194.511719 64.457031 195.121094 63.710938 196.355469 C 61.324219 200.289062 59.460938 209.445312 59.460938 223.9375 C 59.527344 224.894531 59.683594 232.230469 47.761719 227.621094 C 32.914062 221.878906 32.855469 201.960938 32.8125 188.035156 C 32.808594 186.765625 32.804688 185.550781 32.789062 184.390625 C 30.417969 181.757812 14.859375 163.46875 23.046875 145.421875 C 31.925781 125.847656 46.207031 132.339844 60.007812 138.609375 Z M 60.007812 138.609375 "/><g clip-rule="nonzero" clip-path="url(#9865b65878)"><path style=" stroke:none;fill-rule:nonzero;fill:#f652a0;fill-opacity:1;" d="M 81.464844 170.925781 C 81.332031 171.234375 81.195312 171.539062 81.058594 171.84375 C 80.589844 171.890625 80.054688 171.945312 79.546875 172.015625 C 78.21875 172.203125 76.542969 172.738281 73.21875 174.289062 C 69.890625 175.84375 67.0625 179.445312 64.820312 182.71875 C 62.574219 185.988281 60.355469 193.277344 58.554688 193.554688 C 56.75 193.832031 55.28125 190.949219 54.589844 189.785156 C 53.894531 188.621094 52.175781 184.988281 51.402344 183.160156 C 50.625 181.332031 48.332031 174.808594 47.113281 170.519531 C 45.894531 166.230469 45.414062 162.089844 45.300781 156.734375 C 45.191406 151.371094 48.148438 148.417969 50.660156 147.417969 C 50.695312 147.40625 50.726562 147.394531 50.761719 147.378906 C 52.0625 146.925781 54.335938 147.273438 56.996094 148.304688 C 59.617188 149.316406 62.617188 150.996094 65.4375 153.222656 C 65.4375 153.222656 60.578125 151.003906 57.195312 151.085938 C 53.8125 151.167969 51.457031 153.054688 50.238281 155.492188 C 49.015625 157.933594 48.738281 162.980469 49.183594 167.082031 C 49.625 171.183594 51.402344 177.503906 52.511719 180.941406 C 53.617188 184.378906 55.585938 187.511719 56.835938 188.34375 C 58.082031 189.175781 58.832031 187.929688 60.457031 184.417969 C 62.082031 180.90625 66.332031 176.914062 68.476562 175.175781 C 70.460938 173.570312 76.730469 171.3125 81.464844 170.925781 "/></g><g clip-rule="nonzero" clip-path="url(#2747354c6e)"><path style=" stroke:none;fill-rule:nonzero;fill:#f652a0;fill-opacity:1;" d="M 50.511719 146.714844 C 52.324219 145.941406 56.6875 146.308594 60.863281 148.675781 C 65.039062 151.039062 68.476562 153.074219 72.617188 151.925781 C 76.757812 150.78125 81.636719 149.230469 84.628906 150.855469 C 87.625 152.480469 87.585938 156.84375 86.402344 161.277344 C 85.222656 165.714844 80.417969 176.949219 77.976562 180.460938 C 75.539062 183.972656 74.761719 185.414062 74.761719 185.414062 C 90.765625 169.003906 92.429688 155.773438 91.820312 153.222656 C 91.210938 150.671875 90.507812 149.671875 89.25 148.859375 C 87.992188 148.046875 84.777344 146.421875 80.34375 147.675781 C 75.90625 148.933594 74.207031 149.820312 73.023438 150.226562 C 71.839844 150.632812 68.828125 150.894531 67.203125 150.449219 C 65.574219 150.003906 60.199219 146.640625 57.277344 146.085938 C 52.925781 145.292969 50.511719 146.714844 50.511719 146.714844 "/></g><g style="fill:#0194d0;fill-opacity:1;"><g transform="translate(138.143038, 177.797727)"><path style="stroke:none" d="M 15.796875 -11.671875 C 17.117188 -11.390625 18.175781 -10.734375 18.96875 -9.703125 C 19.769531 -8.679688 20.171875 -7.515625 20.171875 -6.203125 C 20.171875 -4.296875 19.503906 -2.785156 18.171875 -1.671875 C 16.847656 -0.554688 15 0 12.625 0 L 2.015625 0 L 2.015625 -22.765625 L 12.265625 -22.765625 C 14.578125 -22.765625 16.382812 -22.234375 17.6875 -21.171875 C 19 -20.117188 19.65625 -18.6875 19.65625 -16.875 C 19.65625 -15.53125 19.300781 -14.414062 18.59375 -13.53125 C 17.894531 -12.644531 16.960938 -12.023438 15.796875 -11.671875 Z M 7.5625 -13.5625 L 11.1875 -13.5625 C 12.09375 -13.5625 12.789062 -13.757812 13.28125 -14.15625 C 13.769531 -14.5625 14.015625 -15.148438 14.015625 -15.921875 C 14.015625 -16.703125 13.769531 -17.296875 13.28125 -17.703125 C 12.789062 -18.117188 12.09375 -18.328125 11.1875 -18.328125 L 7.5625 -18.328125 Z M 11.640625 -4.46875 C 12.578125 -4.46875 13.296875 -4.675781 13.796875 -5.09375 C 14.304688 -5.519531 14.5625 -6.132812 14.5625 -6.9375 C 14.5625 -7.738281 14.296875 -8.363281 13.765625 -8.8125 C 13.234375 -9.269531 12.503906 -9.5 11.578125 -9.5 L 7.5625 -9.5 L 7.5625 -4.46875 Z M 11.640625 -4.46875 "/></g></g><g style="fill:#0194d0;fill-opacity:1;"><g transform="translate(164.451001, 177.797727)"><path style="stroke:none" d="M 7.5625 -18.328125 L 7.5625 -13.71875 L 14.984375 -13.71875 L 14.984375 -9.4375 L 7.5625 -9.4375 L 7.5625 -4.4375 L 15.953125 -4.4375 L 15.953125 0 L 2.015625 0 L 2.015625 -22.765625 L 15.953125 -22.765625 L 15.953125 -18.328125 Z M 7.5625 -18.328125 "/></g></g><g style="fill:#0194d0;fill-opacity:1;"><g transform="translate(186.931338, 177.797727)"><path style="stroke:none" d="M 7.5625 -4.28125 L 14.828125 -4.28125 L 14.828125 0 L 2.015625 0 L 2.015625 -22.765625 L 7.5625 -22.765625 Z M 7.5625 -4.28125 "/></g></g><g style="fill:#0194d0;fill-opacity:1;"><g transform="translate(207.335672, 177.797727)"><path style="stroke:none" d="M 7.5625 -4.28125 L 14.828125 -4.28125 L 14.828125 0 L 2.015625 0 L 2.015625 -22.765625 L 7.5625 -22.765625 Z M 7.5625 -4.28125 "/></g></g><g style="fill:#0194d0;fill-opacity:1;"><g transform="translate(227.740005, 177.797727)"><path style="stroke:none" d="M 16.1875 -4.015625 L 7.6875 -4.015625 L 6.328125 0 L 0.515625 0 L 8.765625 -22.765625 L 15.1875 -22.765625 L 23.421875 0 L 17.546875 0 Z M 14.765625 -8.296875 L 11.9375 -16.640625 L 9.140625 -8.296875 Z M 14.765625 -8.296875 "/></g></g><g style="fill:#01d09e;fill-opacity:1;"><g transform="translate(256.584436, 177.797727)"><path style="stroke:none" d="M 10.546875 -22.765625 C 12.941406 -22.765625 15.035156 -22.289062 16.828125 -21.34375 C 18.628906 -20.394531 20.019531 -19.0625 21 -17.34375 C 21.988281 -15.625 22.484375 -13.640625 22.484375 -11.390625 C 22.484375 -9.160156 21.988281 -7.179688 21 -5.453125 C 20.019531 -3.722656 18.625 -2.378906 16.8125 -1.421875 C 15.007812 -0.472656 12.921875 0 10.546875 0 L 2.015625 0 L 2.015625 -22.765625 Z M 10.1875 -4.796875 C 12.28125 -4.796875 13.910156 -5.367188 15.078125 -6.515625 C 16.242188 -7.660156 16.828125 -9.285156 16.828125 -11.390625 C 16.828125 -13.484375 16.242188 -15.113281 15.078125 -16.28125 C 13.910156 -17.445312 12.28125 -18.03125 10.1875 -18.03125 L 7.5625 -18.03125 L 7.5625 -4.796875 Z M 10.1875 -4.796875 "/></g></g><g style="fill:#01d09e;fill-opacity:1;"><g transform="translate(285.098156, 177.797727)"><path style="stroke:none" d="M 7.5625 -18.328125 L 7.5625 -13.71875 L 14.984375 -13.71875 L 14.984375 -9.4375 L 7.5625 -9.4375 L 7.5625 -4.4375 L 15.953125 -4.4375 L 15.953125 0 L 2.015625 0 L 2.015625 -22.765625 L 15.953125 -22.765625 L 15.953125 -18.328125 Z M 7.5625 -18.328125 "/></g></g><g style="fill:#01d09e;fill-opacity:1;"><g transform="translate(307.584437, 177.797727)"><path style="stroke:none" d=""/></g></g><g style="fill:#01d09e;fill-opacity:1;"><g transform="translate(319.392816, 177.797727)"><path style="stroke:none" d=""/></g></g><g style="fill:#01d09e;fill-opacity:1;"><g transform="translate(331.209435, 177.797727)"><path style="stroke:none" d="M 18.390625 -22.765625 L 18.390625 -18.328125 L 12.359375 -18.328125 L 12.359375 0 L 6.8125 0 L 6.8125 -18.328125 L 0.78125 -18.328125 L 0.78125 -22.765625 Z M 18.390625 -22.765625 "/></g></g><path style=" stroke:none;fill-rule:nonzero;fill:#ffffff;fill-opacity:1;" d="M 62.28125 205.957031 L 60.066406 208.171875 L 57.84375 206.527344 L 56.359375 204.46875 L 58.007812 202.820312 L 60.445312 203.96875 Z M 62.28125 205.957031 "/><path style=" stroke:none;fill-rule:nonzero;fill:#ffffff;fill-opacity:1;" d="M 65.574219 202.664062 L 63.929688 204.308594 L 61.585938 203.007812 L 59.652344 201.175781 L 61.300781 199.527344 L 63.769531 200.761719 Z M 65.574219 202.664062 "/><path style=" stroke:none;fill-rule:nonzero;fill:#ffffff;fill-opacity:1;" d="M 68.710938 199.527344 L 67.222656 201.015625 L 64.730469 199.640625 L 62.945312 197.882812 L 65.003906 195.824219 L 67.113281 197.238281 Z M 68.710938 199.527344 "/><g clip-rule="nonzero" clip-path="url(#92eebdff84)"><path style=" stroke:none;fill-rule:nonzero;fill:#ffffff;fill-opacity:1;" d="M 60.066406 208.171875 L 57.183594 208.585938 L 55.949219 207.347656 L 56.359375 204.46875 Z M 60.066406 208.171875 "/></g><path style=" stroke:none;fill-rule:nonzero;fill:#ffffff;fill-opacity:1;" d="M 77.832031 189.101562 C 81.648438 191.488281 81.09375 197.101562 77.171875 198.90625 C 76.148438 199.375 73.238281 200.761719 73.238281 200.761719 L 72.003906 199.527344 L 68.1875 196.347656 L 65.003906 192.53125 L 63.769531 191.296875 C 63.769531 191.296875 65.164062 188.441406 65.570312 187.492188 C 67.324219 183.410156 73.148438 182.820312 75.519531 186.839844 L 76.324219 188.207031 C 77.761719 189.054688 77.714844 189.023438 77.832031 189.101562 Z M 77.832031 189.101562 "/><path style=" stroke:none;fill-rule:nonzero;fill:#f6e4ff;fill-opacity:1;" d="M 72.003906 199.527344 L 70.355469 201.175781 C 69.589844 200.410156 64.121094 194.941406 63.359375 194.175781 L 65.003906 192.53125 Z M 72.003906 199.527344 "/><path style=" stroke:none;fill-rule:nonzero;fill:#f6e4ff;fill-opacity:1;" d="M 67.222656 201.015625 L 65.574219 202.664062 L 61.300781 199.527344 L 62.945312 197.882812 Z M 67.222656 201.015625 "/><path style=" stroke:none;fill-rule:nonzero;fill:#f6e4ff;fill-opacity:1;" d="M 63.929688 204.308594 L 62.28125 205.957031 L 58.007812 202.820312 L 59.652344 201.175781 Z M 63.929688 204.308594 "/><g clip-rule="nonzero" clip-path="url(#b634822107)"><path style=" stroke:none;fill-rule:nonzero;fill:#01d09e;fill-opacity:1;" d="M 78.140625 188.609375 C 78.015625 188.527344 78.054688 188.554688 76.75 187.785156 L 76.015625 186.542969 C 73.398438 182.105469 66.972656 182.757812 65.035156 187.265625 C 64.640625 188.1875 63.261719 191.011719 63.25 191.039062 C 63.140625 191.261719 63.183594 191.53125 63.359375 191.707031 L 64.183594 192.53125 L 62.949219 193.765625 C 62.722656 193.992188 62.722656 194.359375 62.949219 194.585938 L 64.183594 195.824219 L 55.964844 204.046875 C 55.875 204.128906 55.8125 204.234375 55.789062 204.367188 C 55.785156 204.402344 55.472656 206.582031 55.375 207.265625 C 55.347656 207.449219 55.410156 207.628906 55.539062 207.757812 L 56.773438 208.992188 C 56.90625 209.125 57.089844 209.183594 57.265625 209.15625 C 57.996094 209.054688 60.128906 208.75 60.167969 208.742188 C 60.296875 208.71875 60.40625 208.65625 60.488281 208.570312 L 68.710938 200.347656 L 69.945312 201.585938 C 70.171875 201.8125 70.539062 201.8125 70.765625 201.585938 L 72.003906 200.347656 L 72.828125 201.171875 C 73 201.34375 73.265625 201.394531 73.488281 201.285156 C 73.515625 201.273438 76.40625 199.894531 77.414062 199.433594 C 81.753906 197.4375 82.351562 191.242188 78.140625 188.609375 Z M 65.515625 201.902344 L 62.1875 199.460938 L 63.003906 198.644531 L 66.332031 201.085938 Z M 63.871094 203.546875 L 60.542969 201.105469 L 61.359375 200.289062 L 64.6875 202.730469 Z M 62.222656 205.195312 L 58.894531 202.753906 L 59.710938 201.9375 L 63.039062 204.378906 Z M 58.066406 203.582031 L 61.394531 206.023438 L 60.066406 207.351562 L 57.179688 204.46875 Z M 57.390625 207.96875 L 56.5625 207.144531 L 56.769531 205.699219 L 58.835938 207.761719 Z M 67.164062 200.253906 L 63.835938 197.8125 L 65.003906 196.644531 L 67.890625 199.527344 Z M 70.355469 200.355469 C 69.574219 199.574219 64.90625 194.902344 64.179688 194.175781 L 65.003906 193.351562 L 71.183594 199.527344 Z M 76.929688 198.378906 C 76.132812 198.746094 74.175781 199.671875 73.359375 200.0625 L 64.472656 191.175781 C 64.863281 190.367188 65.777344 188.476562 66.101562 187.722656 C 67.671875 184.074219 72.890625 183.523438 75.019531 187.132812 L 75.824219 188.503906 C 75.875 188.585938 75.945312 188.65625 76.03125 188.707031 C 77.453125 189.546875 77.414062 189.519531 77.527344 189.589844 C 80.960938 191.742188 80.421875 196.773438 76.929688 198.378906 Z M 76.929688 198.378906 "/></g><g clip-rule="nonzero" clip-path="url(#886ea35410)"><path style=" stroke:none;fill-rule:nonzero;fill:#f652a0;fill-opacity:1;" d="M 305.621094 164.65625 C 308.171875 166.011719 310.292969 165.203125 312.316406 163.765625 C 313.628906 162.816406 314.601562 161.542969 315.671875 160.367188 C 316.742188 159.195312 318.058594 157.71875 319.371094 156.527344 C 322.222656 153.917969 326.570312 154.6875 328.492188 158.46875 C 329.011719 159.433594 329.273438 160.464844 329.28125 161.5625 C 329.261719 163.339844 329.199219 165.121094 329.160156 166.878906 C 328.976562 166.554688 328.835938 166.191406 328.652344 165.867188 C 327.398438 163.382812 324.933594 162.574219 322.445312 163.804688 C 320.667969 164.695312 319.292969 166.050781 318.179688 167.667969 C 316.703125 169.832031 315.367188 172.078125 313.953125 174.28125 C 313.265625 175.351562 312.558594 176.425781 311.832031 177.457031 C 311.507812 177.886719 311.132812 178.265625 310.699219 178.585938 C 310.089844 179.050781 309.484375 179.050781 309.039062 178.445312 C 308.492188 177.730469 308.046875 176.953125 307.707031 176.121094 C 306.816406 173.796875 306.410156 171.367188 306.109375 168.902344 C 305.925781 167.527344 305.785156 166.132812 305.621094 164.65625 Z M 305.621094 164.65625 "/></g><path style=" stroke:none;fill-rule:nonzero;fill:#f652a0;fill-opacity:1;" d="M 318.160156 169.304688 C 319.230469 167.75 320.34375 166.273438 321.898438 165.261719 C 322.609375 164.8125 323.371094 164.488281 324.183594 164.292969 C 325.480469 163.949219 326.511719 164.492188 327.300781 165.523438 C 328.429688 167 328.816406 168.71875 328.632812 170.519531 C 328.429688 172.535156 327.972656 174.488281 327.257812 176.382812 C 327.003906 177.039062 326.675781 177.652344 326.269531 178.222656 C 325.660156 179.050781 324.914062 179.175781 324.125 178.507812 C 323.441406 177.933594 322.867188 177.265625 322.40625 176.503906 C 321.636719 175.269531 321.011719 173.957031 320.324219 172.664062 C 319.636719 171.367188 319.171875 170.257812 318.160156 169.304688 Z M 318.160156 169.304688 "/><g clip-rule="nonzero" clip-path="url(#b2774b7979)"><path style=" stroke:none;fill-rule:nonzero;fill:#f652a0;fill-opacity:1;" d="M 316.441406 158.0625 C 314.824219 159.722656 313.589844 161.664062 311.710938 163.019531 C 310.578125 163.847656 309.363281 164.472656 307.90625 164.371094 C 307.402344 164.328125 306.925781 164.191406 306.472656 163.96875 C 305.886719 163.707031 305.5625 163.238281 305.5625 162.492188 C 305.5625 161.117188 305.644531 159.761719 306.230469 158.46875 C 307.363281 155.941406 310.171875 154.503906 312.617188 155.234375 C 314.195312 155.699219 315.367188 156.730469 316.441406 158.0625 Z M 316.441406 158.0625 "/></g><g clip-rule="nonzero" clip-path="url(#dba26f7513)"><path style=" stroke:none;fill-rule:nonzero;fill:#0194d0;fill-opacity:1;" d="M 111.550781 136.4375 C 101.773438 137.199219 101.15625 137.816406 100.394531 147.59375 C 99.632812 137.816406 99.015625 137.199219 89.242188 136.4375 C 99.015625 135.675781 99.632812 135.058594 100.394531 125.285156 C 101.15625 135.058594 101.773438 135.675781 111.550781 136.4375 "/></g><g clip-rule="nonzero" clip-path="url(#d8a68b32c1)"><path style=" stroke:none;fill-rule:nonzero;fill:#0194d0;fill-opacity:1;" d="M 99.246094 121.058594 C 94.128906 121.457031 93.804688 121.78125 93.40625 126.902344 C 93.007812 121.78125 92.683594 121.457031 87.5625 121.058594 C 92.683594 120.660156 93.007812 120.335938 93.40625 115.214844 C 93.804688 120.335938 94.128906 120.660156 99.246094 121.058594 "/></g><g clip-rule="nonzero" clip-path="url(#b64eec9326)"><path style=" stroke:none;fill-rule:nonzero;fill:#0194d0;fill-opacity:1;" d="M 111.5625 124.222656 C 108.398438 124.46875 108.199219 124.667969 107.953125 127.832031 C 107.703125 124.667969 107.503906 124.46875 104.339844 124.222656 C 107.503906 123.972656 107.703125 123.773438 107.953125 120.609375 C 108.199219 123.773438 108.398438 123.972656 111.5625 124.222656 "/></g><g style="fill:#0194d0;fill-opacity:1;"><g transform="translate(187.88668, 204.994117)"><path style="stroke:none" d="M 3.59375 -8.53125 C 4.519531 -8.53125 5.320312 -8.351562 6 -8 C 6.6875 -7.65625 7.210938 -7.160156 7.578125 -6.515625 C 7.941406 -5.867188 8.125 -5.113281 8.125 -4.25 C 8.125 -3.375 7.941406 -2.613281 7.578125 -1.96875 C 7.210938 -1.332031 6.6875 -0.84375 6 -0.5 C 5.320312 -0.164062 4.519531 0 3.59375 0 L 0.9375 0 L 0.9375 -8.53125 Z M 3.59375 -0.921875 C 4.695312 -0.921875 5.535156 -1.210938 6.109375 -1.796875 C 6.691406 -2.378906 6.984375 -3.195312 6.984375 -4.25 C 6.984375 -5.300781 6.691406 -6.125 6.109375 -6.71875 C 5.523438 -7.320312 4.6875 -7.625 3.59375 -7.625 L 2.0625 -7.625 L 2.0625 -0.921875 Z M 3.59375 -0.921875 "/></g></g><g style="fill:#0194d0;fill-opacity:1;"><g transform="translate(199.400958, 204.994117)"><path style="stroke:none" d="M 2.0625 -7.625 L 2.0625 -4.765625 L 5.15625 -4.765625 L 5.15625 -3.859375 L 2.0625 -3.859375 L 2.0625 -0.921875 L 5.53125 -0.921875 L 5.53125 0 L 0.9375 0 L 0.9375 -8.546875 L 5.53125 -8.546875 L 5.53125 -7.625 Z M 2.0625 -7.625 "/></g></g><g style="fill:#0194d0;fill-opacity:1;"><g transform="translate(208.541754, 204.994117)"><path style="stroke:none" d="M 7.640625 0 L 6.53125 0 L 2.0625 -6.796875 L 2.0625 0 L 0.9375 0 L 0.9375 -8.546875 L 2.0625 -8.546875 L 6.53125 -1.765625 L 6.53125 -8.546875 L 7.640625 -8.546875 Z M 7.640625 0 "/></g></g><g style="fill:#0194d0;fill-opacity:1;"><g transform="translate(220.007097, 204.994117)"><path style="stroke:none" d="M 6.1875 -8.53125 L 6.1875 -7.625 L 3.859375 -7.625 L 3.859375 0 L 2.75 0 L 2.75 -7.625 L 0.421875 -7.625 L 0.421875 -8.53125 Z M 6.1875 -8.53125 "/></g></g><g style="fill:#0194d0;fill-opacity:1;"><g transform="translate(229.49046, 204.994117)"><path style="stroke:none" d="M 5.984375 -1.890625 L 2.265625 -1.890625 L 1.578125 0 L 0.40625 0 L 3.484375 -8.484375 L 4.765625 -8.484375 L 7.84375 0 L 6.671875 0 Z M 5.671875 -2.796875 L 4.125 -7.109375 L 2.578125 -2.796875 Z M 5.671875 -2.796875 "/></g></g><g style="fill:#0194d0;fill-opacity:1;"><g transform="translate(240.601002, 204.994117)"><path style="stroke:none" d="M 2.0625 -0.90625 L 5.046875 -0.90625 L 5.046875 0 L 0.9375 0 L 0.9375 -8.53125 L 2.0625 -8.53125 Z M 2.0625 -0.90625 "/></g></g><g style="fill:#0194d0;fill-opacity:1;"><g transform="translate(248.750808, 204.994117)"><path style="stroke:none" d=""/></g></g><g style="fill:#0194d0;fill-opacity:1;"><g transform="translate(254.881934, 204.994117)"><path style="stroke:none" d="M 0.53125 -4.265625 C 0.53125 -5.097656 0.71875 -5.847656 1.09375 -6.515625 C 1.46875 -7.179688 1.976562 -7.703125 2.625 -8.078125 C 3.269531 -8.453125 3.988281 -8.640625 4.78125 -8.640625 C 5.707031 -8.640625 6.519531 -8.414062 7.21875 -7.96875 C 7.914062 -7.519531 8.421875 -6.882812 8.734375 -6.0625 L 7.40625 -6.0625 C 7.164062 -6.570312 6.820312 -6.960938 6.375 -7.234375 C 5.9375 -7.515625 5.40625 -7.65625 4.78125 -7.65625 C 4.1875 -7.65625 3.648438 -7.515625 3.171875 -7.234375 C 2.703125 -6.960938 2.332031 -6.570312 2.0625 -6.0625 C 1.789062 -5.550781 1.65625 -4.953125 1.65625 -4.265625 C 1.65625 -3.585938 1.789062 -2.992188 2.0625 -2.484375 C 2.332031 -1.972656 2.703125 -1.578125 3.171875 -1.296875 C 3.648438 -1.023438 4.1875 -0.890625 4.78125 -0.890625 C 5.40625 -0.890625 5.9375 -1.023438 6.375 -1.296875 C 6.820312 -1.578125 7.164062 -1.972656 7.40625 -2.484375 L 8.734375 -2.484375 C 8.421875 -1.671875 7.914062 -1.039062 7.21875 -0.59375 C 6.519531 -0.144531 5.707031 0.078125 4.78125 0.078125 C 3.988281 0.078125 3.269531 -0.109375 2.625 -0.484375 C 1.976562 -0.859375 1.46875 -1.375 1.09375 -2.03125 C 0.71875 -2.6875 0.53125 -3.429688 0.53125 -4.265625 Z M 0.53125 -4.265625 "/></g></g><g style="fill:#0194d0;fill-opacity:1;"><g transform="translate(267.19145, 204.994117)"><path style="stroke:none" d="M 2.0625 -0.90625 L 5.046875 -0.90625 L 5.046875 0 L 0.9375 0 L 0.9375 -8.53125 L 2.0625 -8.53125 Z M 2.0625 -0.90625 "/></g></g><g style="fill:#0194d0;fill-opacity:1;"><g transform="translate(275.341257, 204.994117)"><path style="stroke:none" d="M 2.0625 -8.53125 L 2.0625 0 L 0.9375 0 L 0.9375 -8.53125 Z M 2.0625 -8.53125 "/></g></g><g style="fill:#0194d0;fill-opacity:1;"><g transform="translate(281.215452, 204.994117)"><path style="stroke:none" d="M 7.640625 0 L 6.53125 0 L 2.0625 -6.796875 L 2.0625 0 L 0.9375 0 L 0.9375 -8.546875 L 2.0625 -8.546875 L 6.53125 -1.765625 L 6.53125 -8.546875 L 7.640625 -8.546875 Z M 7.640625 0 "/></g></g><g style="fill:#0194d0;fill-opacity:1;"><g transform="translate(292.680794, 204.994117)"><path style="stroke:none" d="M 2.0625 -8.53125 L 2.0625 0 L 0.9375 0 L 0.9375 -8.53125 Z M 2.0625 -8.53125 "/></g></g><g style="fill:#0194d0;fill-opacity:1;"><g transform="translate(298.554989, 204.994117)"><path style="stroke:none" d="M 0.53125 -4.265625 C 0.53125 -5.097656 0.71875 -5.847656 1.09375 -6.515625 C 1.46875 -7.179688 1.976562 -7.703125 2.625 -8.078125 C 3.269531 -8.453125 3.988281 -8.640625 4.78125 -8.640625 C 5.707031 -8.640625 6.519531 -8.414062 7.21875 -7.96875 C 7.914062 -7.519531 8.421875 -6.882812 8.734375 -6.0625 L 7.40625 -6.0625 C 7.164062 -6.570312 6.820312 -6.960938 6.375 -7.234375 C 5.9375 -7.515625 5.40625 -7.65625 4.78125 -7.65625 C 4.1875 -7.65625 3.648438 -7.515625 3.171875 -7.234375 C 2.703125 -6.960938 2.332031 -6.570312 2.0625 -6.0625 C 1.789062 -5.550781 1.65625 -4.953125 1.65625 -4.265625 C 1.65625 -3.585938 1.789062 -2.992188 2.0625 -2.484375 C 2.332031 -1.972656 2.703125 -1.578125 3.171875 -1.296875 C 3.648438 -1.023438 4.1875 -0.890625 4.78125 -0.890625 C 5.40625 -0.890625 5.9375 -1.023438 6.375 -1.296875 C 6.820312 -1.578125 7.164062 -1.972656 7.40625 -2.484375 L 8.734375 -2.484375 C 8.421875 -1.671875 7.914062 -1.039062 7.21875 -0.59375 C 6.519531 -0.144531 5.707031 0.078125 4.78125 0.078125 C 3.988281 0.078125 3.269531 -0.109375 2.625 -0.484375 C 1.976562 -0.859375 1.46875 -1.375 1.09375 -2.03125 C 0.71875 -2.6875 0.53125 -3.429688 0.53125 -4.265625 Z M 0.53125 -4.265625 "/></g></g><g style="fill:#0194d0;fill-opacity:1;"><g transform="translate(310.864505, 204.994117)"><path style="stroke:none" d=""/></g></g><g style="fill:#0194d0;fill-opacity:1;"><g transform="translate(316.995631, 204.994117)"><path style="stroke:none" d="M 5.984375 -1.890625 L 2.265625 -1.890625 L 1.578125 0 L 0.40625 0 L 3.484375 -8.484375 L 4.765625 -8.484375 L 7.84375 0 L 6.671875 0 Z M 5.671875 -2.796875 L 4.125 -7.109375 L 2.578125 -2.796875 Z M 5.671875 -2.796875 "/></g></g><g style="fill:#0194d0;fill-opacity:1;"><g transform="translate(328.106173, 204.994117)"><path style="stroke:none" d="M 7.640625 0 L 6.53125 0 L 2.0625 -6.796875 L 2.0625 0 L 0.9375 0 L 0.9375 -8.546875 L 2.0625 -8.546875 L 6.53125 -1.765625 L 6.53125 -8.546875 L 7.640625 -8.546875 Z M 7.640625 0 "/></g></g><g style="fill:#0194d0;fill-opacity:1;"><g transform="translate(339.571515, 204.994117)"><path style="stroke:none" d="M 3.59375 -8.53125 C 4.519531 -8.53125 5.320312 -8.351562 6 -8 C 6.6875 -7.65625 7.210938 -7.160156 7.578125 -6.515625 C 7.941406 -5.867188 8.125 -5.113281 8.125 -4.25 C 8.125 -3.375 7.941406 -2.613281 7.578125 -1.96875 C 7.210938 -1.332031 6.6875 -0.84375 6 -0.5 C 5.320312 -0.164062 4.519531 0 3.59375 0 L 0.9375 0 L 0.9375 -8.53125 Z M 3.59375 -0.921875 C 4.695312 -0.921875 5.535156 -1.210938 6.109375 -1.796875 C 6.691406 -2.378906 6.984375 -3.195312 6.984375 -4.25 C 6.984375 -5.300781 6.691406 -6.125 6.109375 -6.71875 C 5.523438 -7.320312 4.6875 -7.625 3.59375 -7.625 L 2.0625 -7.625 L 2.0625 -0.921875 Z M 3.59375 -0.921875 "/></g></g><g style="fill:#0194d0;fill-opacity:1;"><g transform="translate(200.789023, 221.494116)"><path style="stroke:none" d="M 2.0625 -8.53125 L 2.0625 0 L 0.9375 0 L 0.9375 -8.53125 Z M 2.0625 -8.53125 "/></g></g><g style="fill:#0194d0;fill-opacity:1;"><g transform="translate(206.663218, 221.494116)"><path style="stroke:none" d="M 9.59375 -8.46875 L 9.59375 0 L 8.484375 0 L 8.484375 -6.3125 L 5.671875 0 L 4.875 0 L 2.0625 -6.328125 L 2.0625 0 L 0.9375 0 L 0.9375 -8.46875 L 2.140625 -8.46875 L 5.265625 -1.46875 L 8.40625 -8.46875 Z M 9.59375 -8.46875 "/></g></g><g style="fill:#0194d0;fill-opacity:1;"><g transform="translate(220.061605, 221.494116)"><path style="stroke:none" d="M 6.640625 -6.03125 C 6.640625 -5.320312 6.394531 -4.734375 5.90625 -4.265625 C 5.425781 -3.796875 4.6875 -3.5625 3.6875 -3.5625 L 2.0625 -3.5625 L 2.0625 0 L 0.9375 0 L 0.9375 -8.53125 L 3.6875 -8.53125 C 4.65625 -8.53125 5.390625 -8.296875 5.890625 -7.828125 C 6.390625 -7.359375 6.640625 -6.757812 6.640625 -6.03125 Z M 3.6875 -4.484375 C 4.3125 -4.484375 4.769531 -4.613281 5.0625 -4.875 C 5.351562 -5.144531 5.5 -5.53125 5.5 -6.03125 C 5.5 -7.082031 4.894531 -7.609375 3.6875 -7.609375 L 2.0625 -7.609375 L 2.0625 -4.484375 Z M 3.6875 -4.484375 "/></g></g><g style="fill:#0194d0;fill-opacity:1;"><g transform="translate(230.009873, 221.494116)"><path style="stroke:none" d="M 2.0625 -0.90625 L 5.046875 -0.90625 L 5.046875 0 L 0.9375 0 L 0.9375 -8.53125 L 2.0625 -8.53125 Z M 2.0625 -0.90625 "/></g></g><g style="fill:#0194d0;fill-opacity:1;"><g transform="translate(238.15968, 221.494116)"><path style="stroke:none" d="M 5.984375 -1.890625 L 2.265625 -1.890625 L 1.578125 0 L 0.40625 0 L 3.484375 -8.484375 L 4.765625 -8.484375 L 7.84375 0 L 6.671875 0 Z M 5.671875 -2.796875 L 4.125 -7.109375 L 2.578125 -2.796875 Z M 5.671875 -2.796875 "/></g></g><g style="fill:#0194d0;fill-opacity:1;"><g transform="translate(249.270221, 221.494116)"><path style="stroke:none" d="M 7.640625 0 L 6.53125 0 L 2.0625 -6.796875 L 2.0625 0 L 0.9375 0 L 0.9375 -8.546875 L 2.0625 -8.546875 L 6.53125 -1.765625 L 6.53125 -8.546875 L 7.640625 -8.546875 Z M 7.640625 0 "/></g></g><g style="fill:#0194d0;fill-opacity:1;"><g transform="translate(260.735564, 221.494116)"><path style="stroke:none" d="M 6.1875 -8.53125 L 6.1875 -7.625 L 3.859375 -7.625 L 3.859375 0 L 2.75 0 L 2.75 -7.625 L 0.421875 -7.625 L 0.421875 -8.53125 Z M 6.1875 -8.53125 "/></g></g><g style="fill:#0194d0;fill-opacity:1;"><g transform="translate(270.218927, 221.494116)"><path style="stroke:none" d=""/></g></g><g style="fill:#0194d0;fill-opacity:1;"><g transform="translate(276.350053, 221.494116)"><path style="stroke:none" d="M 0.53125 -4.265625 C 0.53125 -5.097656 0.71875 -5.847656 1.09375 -6.515625 C 1.46875 -7.179688 1.976562 -7.703125 2.625 -8.078125 C 3.269531 -8.453125 3.988281 -8.640625 4.78125 -8.640625 C 5.707031 -8.640625 6.519531 -8.414062 7.21875 -7.96875 C 7.914062 -7.519531 8.421875 -6.882812 8.734375 -6.0625 L 7.40625 -6.0625 C 7.164062 -6.570312 6.820312 -6.960938 6.375 -7.234375 C 5.9375 -7.515625 5.40625 -7.65625 4.78125 -7.65625 C 4.1875 -7.65625 3.648438 -7.515625 3.171875 -7.234375 C 2.703125 -6.960938 2.332031 -6.570312 2.0625 -6.0625 C 1.789062 -5.550781 1.65625 -4.953125 1.65625 -4.265625 C 1.65625 -3.585938 1.789062 -2.992188 2.0625 -2.484375 C 2.332031 -1.972656 2.703125 -1.578125 3.171875 -1.296875 C 3.648438 -1.023438 4.1875 -0.890625 4.78125 -0.890625 C 5.40625 -0.890625 5.9375 -1.023438 6.375 -1.296875 C 6.820312 -1.578125 7.164062 -1.972656 7.40625 -2.484375 L 8.734375 -2.484375 C 8.421875 -1.671875 7.914062 -1.039062 7.21875 -0.59375 C 6.519531 -0.144531 5.707031 0.078125 4.78125 0.078125 C 3.988281 0.078125 3.269531 -0.109375 2.625 -0.484375 C 1.976562 -0.859375 1.46875 -1.375 1.09375 -2.03125 C 0.71875 -2.6875 0.53125 -3.429688 0.53125 -4.265625 Z M 0.53125 -4.265625 "/></g></g><g style="fill:#0194d0;fill-opacity:1;"><g transform="translate(288.659569, 221.494116)"><path style="stroke:none" d="M 2.0625 -7.625 L 2.0625 -4.765625 L 5.15625 -4.765625 L 5.15625 -3.859375 L 2.0625 -3.859375 L 2.0625 -0.921875 L 5.53125 -0.921875 L 5.53125 0 L 0.9375 0 L 0.9375 -8.546875 L 5.53125 -8.546875 L 5.53125 -7.625 Z M 2.0625 -7.625 "/></g></g><g style="fill:#0194d0;fill-opacity:1;"><g transform="translate(297.800366, 221.494116)"><path style="stroke:none" d="M 7.640625 0 L 6.53125 0 L 2.0625 -6.796875 L 2.0625 0 L 0.9375 0 L 0.9375 -8.546875 L 2.0625 -8.546875 L 6.53125 -1.765625 L 6.53125 -8.546875 L 7.640625 -8.546875 Z M 7.640625 0 "/></g></g><g style="fill:#0194d0;fill-opacity:1;"><g transform="translate(309.265708, 221.494116)"><path style="stroke:none" d="M 6.1875 -8.53125 L 6.1875 -7.625 L 3.859375 -7.625 L 3.859375 0 L 2.75 0 L 2.75 -7.625 L 0.421875 -7.625 L 0.421875 -8.53125 Z M 6.1875 -8.53125 "/></g></g><g style="fill:#0194d0;fill-opacity:1;"><g transform="translate(318.749072, 221.494116)"><path style="stroke:none" d="M 2.0625 -7.625 L 2.0625 -4.765625 L 5.15625 -4.765625 L 5.15625 -3.859375 L 2.0625 -3.859375 L 2.0625 -0.921875 L 5.53125 -0.921875 L 5.53125 0 L 0.9375 0 L 0.9375 -8.546875 L 5.53125 -8.546875 L 5.53125 -7.625 Z M 2.0625 -7.625 "/></g></g><g style="fill:#0194d0;fill-opacity:1;"><g transform="translate(327.889868, 221.494116)"><path style="stroke:none" d="M 5.4375 0 L 3.40625 -3.484375 L 2.0625 -3.484375 L 2.0625 0 L 0.9375 0 L 0.9375 -8.53125 L 3.6875 -8.53125 C 4.332031 -8.53125 4.878906 -8.414062 5.328125 -8.1875 C 5.773438 -7.96875 6.109375 -7.671875 6.328125 -7.296875 C 6.546875 -6.921875 6.65625 -6.492188 6.65625 -6.015625 C 6.65625 -5.429688 6.484375 -4.914062 6.140625 -4.46875 C 5.804688 -4.019531 5.300781 -3.722656 4.625 -3.578125 L 6.765625 0 Z M 2.0625 -4.375 L 3.6875 -4.375 C 4.289062 -4.375 4.742188 -4.519531 5.046875 -4.8125 C 5.347656 -5.113281 5.5 -5.515625 5.5 -6.015625 C 5.5 -6.523438 5.347656 -6.914062 5.046875 -7.1875 C 4.753906 -7.46875 4.300781 -7.609375 3.6875 -7.609375 L 2.0625 -7.609375 Z M 2.0625 -4.375 "/></g></g></g></svg>